<?xml version="1.0"?>
<svg xmlns="http://www.w3.org/2000/svg" width="1920" height="752" viewBox="0 0 1920 752">
  <defs>
    <linearGradient id="a" x1=".464" y1=".945" x2=".598" y2=".945" gradientUnits="objectBoundingBox">
      <stop offset="0" stop-color="#e0ebf8" />
      <stop offset="1" stop-color="#dde9f7" />
    </linearGradient>
    <linearGradient id="e" x1=".5" y1=".071" x2=".5" y2="1" gradientUnits="objectBoundingBox">
      <stop offset="0" stop-color="#bfcfe8" stop-opacity="0" />
      <stop offset=".462" stop-color="#bfcfe8" stop-opacity=".2" />
      <stop offset="1" stop-color="#bfcfe8" stop-opacity=".302" />
    </linearGradient>
    <clipPath id="b">
      <path style="fill:none;stroke:#707070" d="M0 0h1920v752H0z" />
    </clipPath>
    <clipPath id="d">
      <path class="b" d="M72.86 7813.766 4427.142 10327.7a145.665 145.665 0 0 0 145.7 0l4354.28-2513.934a145.7 145.7 0 0 0 72.878-126.2v-5027.9a145.7 145.7 0 0 0-72.878-126.2L4572.839 19.525a145.668 145.668 0 0 0-145.7 0L72.86 2533.463A145.722 145.722 0 0 0 0 2659.666v5027.9a145.722 145.722 0 0 0 72.86 126.2" />
    </clipPath>
    <style>
      .b{fill:url(#a)}
    </style>
  </defs>
  <g style="clip-path:url(#b)">
    <path class="b" d="M-4182.923-1781.463 171.359 732.471a145.665 145.665 0 0 0 145.7 0l4354.28-2513.934a145.7 145.7 0 0 0 72.878-126.2v-5027.9a145.7 145.7 0 0 0-72.878-126.2L317.056-9575.704a145.668 145.668 0 0 0-145.7 0l-4354.279 2513.938a145.722 145.722 0 0 0-72.86 126.203v5027.9a145.722 145.722 0 0 0 72.86 126.2" />
    <g style="clip-path:url(#d)" transform="translate(-4255.783 -9595.229)">
      <path transform="rotate(180 3087.891 4915.114)" style="fill:url(#e)" d="M0 0h1920v235H0z" />
    </g>
  </g>
</svg>