<svg width="25" height="25" viewBox="0 0 25 25" fill="none" xmlns="http://www.w3.org/2000/svg">
<path fill-rule="evenodd" clip-rule="evenodd" d="M4.03999 0.799805H3.94999C3.53779 0.799805 3.18319 0.799805 2.86999 0.873605C2.38513 0.989461 1.94182 1.23729 1.58916 1.58963C1.23651 1.94196 0.988281 2.38505 0.871988 2.8698C0.799988 3.183 0.799988 3.5358 0.799988 3.9498V8.4498C0.799988 8.86201 0.799988 9.21661 0.873788 9.52981C0.989645 10.0147 1.23747 10.458 1.58981 10.8106C1.94215 11.1633 2.38524 11.4115 2.86999 11.5278C3.18319 11.5998 3.53599 11.5998 3.94999 11.5998H8.44999C8.86219 11.5998 9.21679 11.5998 9.52999 11.526C10.0148 11.4101 10.4582 11.1623 10.8108 10.81C11.1635 10.4576 11.4117 10.0146 11.528 9.52981C11.6 9.21661 11.6 8.8638 11.6 8.4498V3.9498C11.6 3.5376 11.6 3.183 11.5262 2.8698C11.4103 2.38495 11.1625 1.94163 10.8102 1.58898C10.4578 1.23632 10.0147 0.988098 9.52999 0.871805C9.21679 0.799805 8.86399 0.799805 8.44999 0.799805H4.03999ZM3.28939 2.625C3.36679 2.607 3.48739 2.5998 4.03999 2.5998H8.35999C8.91439 2.5998 9.03319 2.6052 9.11059 2.625C9.27228 2.66367 9.4201 2.74637 9.53766 2.86393C9.65522 2.98149 9.73792 3.12931 9.77659 3.291C9.79459 3.3666 9.79999 3.4854 9.79999 4.0398V8.3598C9.79999 8.9142 9.79459 9.033 9.77479 9.1104C9.73612 9.2721 9.65342 9.41992 9.53586 9.53748C9.41831 9.65504 9.27048 9.73774 9.10879 9.77641C9.03499 9.79261 8.91619 9.7998 8.35999 9.7998H4.03999C3.48559 9.7998 3.36679 9.7944 3.28939 9.7746C3.12769 9.73594 2.97987 9.65324 2.86231 9.53568C2.74475 9.41812 2.66205 9.2703 2.62339 9.10861C2.60719 9.03481 2.59999 8.916 2.59999 8.3598V4.0398C2.59999 3.4854 2.60539 3.3666 2.62519 3.2892C2.66385 3.12751 2.74655 2.97969 2.86411 2.86213C2.98167 2.74457 3.12949 2.66187 3.29119 2.6232L3.28939 2.625ZM16.64 0.799805H16.55C16.1378 0.799805 15.7832 0.799805 15.47 0.873605C14.9851 0.989461 14.5418 1.23729 14.1892 1.58963C13.8365 1.94196 13.5883 2.38505 13.472 2.8698C13.4 3.183 13.4 3.5358 13.4 3.9498V8.4498C13.4 8.86201 13.4 9.21661 13.4738 9.52981C13.5896 10.0147 13.8375 10.458 14.1898 10.8106C14.5421 11.1633 14.9852 11.4115 15.47 11.5278C15.7832 11.5998 16.136 11.5998 16.55 11.5998H21.05C21.4622 11.5998 21.8168 11.5998 22.13 11.526C22.6148 11.4101 23.0582 11.1623 23.4108 10.81C23.7635 10.4576 24.0117 10.0146 24.128 9.52981C24.2 9.21661 24.2 8.8638 24.2 8.4498V3.9498C24.2 3.5376 24.2 3.183 24.1262 2.8698C24.0103 2.38495 23.7625 1.94163 23.4102 1.58898C23.0578 1.23632 22.6147 0.988098 22.13 0.871805C21.8168 0.799805 21.464 0.799805 21.05 0.799805H16.64ZM15.8894 2.625C15.9668 2.607 16.0874 2.5998 16.64 2.5998H20.96C21.5144 2.5998 21.6332 2.6052 21.7106 2.625C21.8723 2.66367 22.0201 2.74637 22.1377 2.86393C22.2552 2.98149 22.3379 3.12931 22.3766 3.291C22.3946 3.3666 22.4 3.4854 22.4 4.0398V8.3598C22.4 8.9142 22.3928 9.033 22.3748 9.1104C22.3361 9.2721 22.2534 9.41992 22.1359 9.53748C22.0183 9.65504 21.8705 9.73774 21.7088 9.77641C21.6332 9.7944 21.5144 9.7998 20.96 9.7998H16.64C16.0856 9.7998 15.9668 9.7944 15.8894 9.7746C15.7277 9.73594 15.5799 9.65324 15.4623 9.53568C15.3448 9.41812 15.2621 9.2703 15.2234 9.10861C15.2072 9.03481 15.2 8.916 15.2 8.3598V4.0398C15.2 3.4854 15.2054 3.3666 15.2252 3.2892C15.2639 3.12751 15.3466 2.97969 15.4641 2.86213C15.5817 2.74457 15.7295 2.66187 15.8912 2.6232L15.8894 2.625ZM3.94999 13.3998H8.44999C8.86219 13.3998 9.21679 13.3998 9.52999 13.4736C10.0148 13.5895 10.4582 13.8373 10.8108 14.1896C11.1635 14.542 11.4117 14.9851 11.528 15.4698C11.6 15.783 11.6 16.1358 11.6 16.5498V21.0498C11.6 21.462 11.6 21.8166 11.5262 22.1298C11.4103 22.6147 11.1625 23.058 10.8102 23.4106C10.4578 23.7633 10.0147 24.0115 9.52999 24.1278C9.21679 24.1998 8.86399 24.1998 8.44999 24.1998H3.94999C3.53779 24.1998 3.18319 24.1998 2.86999 24.126C2.38513 24.0101 1.94182 23.7623 1.58916 23.41C1.23651 23.0576 0.988281 22.6146 0.871988 22.1298C0.799988 21.8166 0.799988 21.4638 0.799988 21.0498V16.5498C0.799988 16.1376 0.799988 15.783 0.873788 15.4698C0.989645 14.9849 1.23747 14.5416 1.58981 14.189C1.94215 13.8363 2.38524 13.5881 2.86999 13.4718C3.18319 13.3998 3.53599 13.3998 3.94999 13.3998ZM4.03999 15.1998C3.48559 15.1998 3.36679 15.2052 3.28939 15.225C3.12769 15.2637 2.97987 15.3464 2.86231 15.4639C2.74475 15.5815 2.66205 15.7293 2.62339 15.891C2.60719 15.9648 2.59999 16.0836 2.59999 16.6398V20.9598C2.59999 21.5142 2.60539 21.633 2.62519 21.7104C2.66385 21.8721 2.74655 22.0199 2.86411 22.1375C2.98167 22.255 3.12949 22.3377 3.29119 22.3764C3.36679 22.3944 3.48559 22.3998 4.03999 22.3998H8.35999C8.91439 22.3998 9.03319 22.3926 9.11059 22.3746C9.27228 22.3359 9.4201 22.2532 9.53766 22.1357C9.65522 22.0181 9.73792 21.8703 9.77659 21.7086C9.79459 21.633 9.79999 21.5142 9.79999 20.9598V16.6398C9.79999 16.0854 9.79459 15.9666 9.77479 15.8892C9.73612 15.7275 9.65342 15.5797 9.53586 15.4621C9.41831 15.3446 9.27048 15.2619 9.10879 15.2232C9.03499 15.207 8.91619 15.1998 8.35999 15.1998H4.03999ZM16.64 13.3998H16.55C16.1378 13.3998 15.7832 13.3998 15.47 13.4736C14.9851 13.5895 14.5418 13.8373 14.1892 14.1896C13.8365 14.542 13.5883 14.9851 13.472 15.4698C13.4 15.783 13.4 16.1358 13.4 16.5498V21.0498C13.4 21.462 13.4 21.8166 13.4738 22.1298C13.5896 22.6147 13.8375 23.058 14.1898 23.4106C14.5421 23.7633 14.9852 24.0115 15.47 24.1278C15.7832 24.2016 16.1378 24.2016 16.55 24.2016H21.05C21.4622 24.2016 21.8168 24.2016 22.13 24.1278C22.6145 24.0117 23.0574 23.7637 23.4098 23.4114C23.7621 23.0591 24.01 22.6161 24.1262 22.1316C24.2 21.8184 24.2 21.4638 24.2 21.0516V16.5498C24.2 16.1376 24.2 15.783 24.1262 15.4698C24.0103 14.9849 23.7625 14.5416 23.4102 14.189C23.0578 13.8363 22.6147 13.5881 22.13 13.4718C21.8168 13.3998 21.464 13.3998 21.05 13.3998H16.64ZM15.8894 15.225C15.9668 15.207 16.0874 15.1998 16.64 15.1998H20.96C21.5144 15.1998 21.6332 15.2052 21.7106 15.225C21.8723 15.2637 22.0201 15.3464 22.1377 15.4639C22.2552 15.5815 22.3379 15.7293 22.3766 15.891C22.3946 15.9666 22.4 16.0854 22.4 16.6398V20.9598C22.4 21.5142 22.3928 21.633 22.3748 21.7104C22.3361 21.8721 22.2534 22.0199 22.1359 22.1375C22.0183 22.255 21.8705 22.3377 21.7088 22.3764C21.6332 22.3944 21.5144 22.3998 20.96 22.3998H16.64C16.0856 22.3998 15.9668 22.3926 15.8894 22.3746C15.7277 22.3359 15.5799 22.2532 15.4623 22.1357C15.3448 22.0181 15.2621 21.8703 15.2234 21.7086C15.2072 21.6348 15.2 21.516 15.2 20.9598V16.6398C15.2 16.0854 15.2054 15.9666 15.2252 15.8892C15.2639 15.7275 15.3466 15.5797 15.4641 15.4621C15.5817 15.3446 15.7295 15.2619 15.8912 15.2232L15.8894 15.225Z" fill="black"/>
</svg>
