<svg width="29" height="28" viewBox="0 0 29 28" fill="none" xmlns="http://www.w3.org/2000/svg">
<path fill-rule="evenodd" clip-rule="evenodd" d="M10.0833 6.99967H7.74998V5.83301H5.41665V9.33301H24.0833V5.83301H21.75V6.99967H19.4166V5.83301H10.0833V6.99967ZM24.0833 11.6663H5.41665V23.333H24.0833V11.6663ZM19.4166 3.49967H10.0833V2.33301H7.74998V3.49967H5.41665C4.12798 3.49967 3.08331 4.54434 3.08331 5.83301V23.333C3.08331 24.6217 4.12798 25.6663 5.41665 25.6663H24.0833C25.372 25.6663 26.4166 24.6217 26.4166 23.333V5.83301C26.4166 4.54434 25.372 3.49967 24.0833 3.49967H21.75V2.33301H19.4166V3.49967ZM11.25 16.333H8.91665V13.9997H11.25V16.333ZM13.5833 16.333H15.9166V13.9997H13.5833V16.333ZM20.5833 16.333H18.25V13.9997H20.5833V16.333ZM8.91665 20.9997H11.25V18.6663H8.91665V20.9997ZM15.9166 20.9997H13.5833V18.6663H15.9166V20.9997Z" fill="black"/>
</svg>
