<svg width="22" height="22" viewBox="0 0 22 22" fill="none" xmlns="http://www.w3.org/2000/svg">
<path fill-rule="evenodd" clip-rule="evenodd" d="M18.1106 10.543H21.6823V14.3691C21.6823 15.3549 20.8817 16.1544 19.8959 16.1544H18.1106V10.543ZM0.764648 2.88989V19.2155L12.4992 21.2865V0.818848L0.764648 2.88989ZM9.43813 8.55256L7.39743 8.60384V14.6234H5.86639V8.70536L3.82674 8.80791V7.4307L9.43813 7.12512V8.55256ZM13.5185 9.01198V17.6855H15.5592C16.4048 17.6855 17.0902 17 17.0902 16.1555V9.01198H13.5185ZM15.0495 3.91024C14.4363 3.91024 13.8931 4.18652 13.5185 4.61454V7.28838C13.8921 7.7164 14.4363 7.99268 15.0495 7.99268C15.5909 7.99268 16.1101 7.77763 16.4929 7.39482C16.8757 7.01202 17.0907 6.49283 17.0907 5.95146C17.0907 5.4101 16.8757 4.8909 16.4929 4.5081C16.1101 4.1253 15.5909 3.91024 15.0495 3.91024Z" fill="#333333"/>
</svg>
